<svg xmlns="http://www.w3.org/2000/svg" width="800" height="700" viewBox="0 0 800 700">
  <defs>
    <linearGradient id="g" x1="0" y1="0" x2="1" y2="1">
      <stop offset="0" stop-color="#fb7185"/><stop offset="1" stop-color="#f59e0b"/>
    </linearGradient>
    <pattern id="dots" width="34" height="34" patternUnits="userSpaceOnUse">
      <circle cx="3" cy="3" r="2.2" fill="rgba(255,255,255,.10)"/>
    </pattern>
  </defs>
  <rect width="800" height="700" fill="url(#g)"/>
  <rect width="800" height="700" fill="url(#dots)"/>
  <g transform="translate(328.2 250.2) scale(5.979)" fill="none" stroke="#ffffff" color="#ffffff" stroke-width="2" stroke-linecap="round" stroke-linejoin="round" opacity="0.96"><path d="M5 8.5h12v4.5a5 5 0 0 1-10 0V8.5ZM17 9.5h2a2 2 0 0 1 0 4h-2M6 3c0 1 1 1 1 2M10 3c0 1 1 1 1 2M14 3c0 1 1 1 1 2M4.5 20.5h14"/></g>
  <text x="50%" y="74%" font-size="50" fill="#ffffff" font-family="Lora,Georgia,serif" font-weight="700" text-anchor="middle" opacity="0.95">Tea &amp; Talk</text>
</svg>
