<svg xmlns="http://www.w3.org/2000/svg" width="800" height="600" viewBox="0 0 800 600">
  <defs>
    <linearGradient id="g" x1="0" y1="0" x2="1" y2="1">
      <stop offset="0" stop-color="#f59e0b"/><stop offset="1" stop-color="#10b981"/>
    </linearGradient>
    <pattern id="dots" width="34" height="34" patternUnits="userSpaceOnUse">
      <circle cx="3" cy="3" r="2.2" fill="rgba(255,255,255,.10)"/>
    </pattern>
  </defs>
  <rect width="800" height="600" fill="url(#g)"/>
  <rect width="800" height="600" fill="url(#dots)"/>
  <circle cx="656" cy="120" r="100" fill="rgba(255,255,255,.08)"/>
  <circle cx="112" cy="516" r="75" fill="rgba(255,255,255,.07)"/>
  <g transform="translate(350.8 214.8) scale(4.100)" fill="none" stroke="#ffffff" color="#ffffff" stroke-width="2" stroke-linecap="round" stroke-linejoin="round" opacity="0.96"><path d="M3.5 11h17a8.5 8.5 0 0 1-17 0Z"/><path d="M12 11c-1-2.5.5-5 3-6M12 11c0-2.5-2-4-4.5-4.5M12 11c1-2 3.5-2.5 5.5-1.5"/></g>
  <text x="50%" y="70%" font-size="37" fill="#ffffff" font-family="Lora,Georgia,serif" font-weight="700" letter-spacing="0.5" text-anchor="middle" opacity="0.95">Nutrition</text>
</svg>
